<svg width="24" height="24" viewBox="0 0 24 24" fill="none" xmlns="http://www.w3.org/2000/svg">
<g clip-path="url(#clip0_15_526)">
<path d="M6 15.4284V11.9999M6 11.9999V10.857C6 9.59464 6.97683 8.57129 8.18182 8.57129C9.3868 8.57129 10.3636 9.59464 10.3636 10.857V11.9999M6 11.9999H10.3636M10.3636 15.4284V11.9999M13.6364 15.4284V8.57129H15.8182C17.0232 8.57129 18 9.59464 18 10.857V13.1427C18 14.4051 17.0232 15.4284 15.8182 15.4284H13.6364Z" stroke="#5F24D6" stroke-width="1.5" stroke-linecap="round" stroke-linejoin="round"/>
<path d="M12.0003 23.1426C18.1543 23.1426 23.1431 18.1538 23.1431 11.9998C23.1431 5.84576 18.1543 0.856934 12.0003 0.856934C5.84625 0.856934 0.857422 5.84576 0.857422 11.9998C0.857422 18.1538 5.84625 23.1426 12.0003 23.1426Z" stroke="#5F24D6" stroke-width="1.5"/>
<path d="M19.7137 19.7142L17.5096 17.5101M4.28516 4.28564L6.48924 6.48973" stroke="#5F24D6" stroke-width="1.3" stroke-linecap="round" stroke-linejoin="round"/>
</g>
<defs>
<clipPath id="clip0_15_526">
<rect width="24" height="24" fill="white"/>
</clipPath>
</defs>
</svg>
