<svg width="24" height="24" viewBox="0 0 24 24" fill="none" xmlns="http://www.w3.org/2000/svg">
<path d="M3.93895 21H20.0614C22.0078 21 23 20.0182 23 18.0738V8.19147C23 6.24714 22.0078 5.27497 20.0614 5.27497H17.8719C17.1421 5.27497 16.9177 5.12395 16.4965 4.65196L15.7383 3.80222C15.2799 3.28352 14.8028 3 13.8294 3H10.1051C9.1413 3 8.66379 3.28352 8.19625 3.80222L7.43806 4.65196C7.02642 5.11428 6.79246 5.27497 6.06261 5.27497H3.93855C1.99216 5.27497 1 6.24714 1 8.19147V18.0738C1 20.0182 1.99256 21 3.93895 21ZM3.9665 19.4801C3.04022 19.4801 2.50681 18.98 2.50681 17.9981V8.27644C2.50681 7.29461 3.04022 6.79443 3.9665 6.79443H6.43672C7.27916 6.79443 7.72832 6.63415 8.19625 6.10578L8.93528 5.27497C9.46869 4.67089 9.74019 4.51987 10.573 4.51987H13.3615C14.1943 4.51987 14.4658 4.67089 14.9992 5.27497L15.7383 6.10538C16.2062 6.63415 16.6554 6.79443 17.4978 6.79443H20.0335C20.9598 6.79443 21.4936 7.29461 21.4936 8.27644V17.9981C21.4936 18.98 20.9602 19.4801 20.0335 19.4801H3.9665ZM11.9956 17.9796C12.6679 17.9815 13.3338 17.8492 13.9552 17.5903C14.5765 17.3314 15.1409 16.951 15.6158 16.4711C16.0907 15.9912 16.4668 15.4212 16.7223 14.794C16.9778 14.1668 17.1077 13.4948 17.1045 12.8167C17.1045 9.94693 14.8399 7.65384 11.9952 7.65384C9.16925 7.65384 6.89547 9.94693 6.89547 12.8167C6.89547 15.6857 9.16925 17.9796 11.9952 17.9796M18.7231 10.5132C19.3596 10.5132 19.8834 9.99445 19.8834 9.35251C19.8834 9.04213 19.7611 8.74446 19.5436 8.52498C19.326 8.30551 19.0308 8.18221 18.7231 8.18221C18.4154 8.18221 18.1203 8.30551 17.9027 8.52498C17.6851 8.74446 17.5629 9.04213 17.5629 9.35251C17.5629 9.99445 18.0867 10.5132 18.7231 10.5132ZM11.9956 16.5451C9.96497 16.5451 8.30885 14.8839 8.30885 12.8167C8.30885 10.7496 9.95579 9.08873 11.9956 9.08873C12.4811 9.08815 12.962 9.18418 13.4107 9.37131C13.8594 9.55845 14.2671 9.83302 14.6105 10.1793C14.9538 10.5256 15.2261 10.9368 15.4116 11.3894C15.5972 11.8419 15.6925 12.327 15.692 12.8167C15.6925 13.3065 15.5973 13.7916 15.4118 14.2442C15.2262 14.6968 14.954 15.1081 14.6106 15.4544C14.2673 15.8007 13.8595 16.0753 13.4108 16.2625C12.9621 16.4496 12.4812 16.5457 11.9956 16.5451Z" fill="#5F24D6"/>
</svg>
