<svg width="24" height="24" viewBox="0 0 24 24" fill="none" xmlns="http://www.w3.org/2000/svg">
<path d="M14.0405 14.863L13.1545 17.962C12.8225 19.122 11.1785 19.122 10.8465 17.962L9.9615 14.863C9.90547 14.667 9.80041 14.4884 9.65624 14.3443C9.51207 14.2001 9.33354 14.095 9.1375 14.039L6.0385 13.154C4.8785 12.822 4.8785 11.178 6.0385 10.846L9.1375 9.96101C9.33354 9.90498 9.51207 9.79992 9.65624 9.65575C9.80041 9.51158 9.90547 9.33305 9.9615 9.13701L10.8465 6.03801C11.1785 4.87801 12.8225 4.87801 13.1545 6.03801L14.0395 9.13701C14.0955 9.33305 14.2006 9.51158 14.3448 9.65575C14.4889 9.79992 14.6675 9.90498 14.8635 9.96101L17.9625 10.846C19.1225 11.178 19.1225 12.822 17.9625 13.154L14.8635 14.039C14.6675 14.095 14.4889 14.2001 14.3448 14.3443C14.2006 14.4884 14.0955 14.667 14.0395 14.863M19.5705 19.716L19.1945 21.224C19.1445 21.426 18.8575 21.426 18.8065 21.224L18.4295 19.716C18.4207 19.681 18.4025 19.649 18.377 19.6235C18.3515 19.598 18.3195 19.5798 18.2845 19.571L16.7765 19.194C16.5745 19.144 16.5745 18.857 16.7765 18.806L18.2845 18.429C18.3195 18.4202 18.3515 18.402 18.377 18.3765C18.4025 18.351 18.4207 18.319 18.4295 18.284L18.8065 16.776C18.8565 16.574 19.1435 16.574 19.1945 16.776L19.5715 18.284C19.5803 18.319 19.5985 18.351 19.624 18.3765C19.6495 18.402 19.6815 18.4202 19.7165 18.429L21.2245 18.806C21.4265 18.856 21.4265 19.143 21.2245 19.194L19.7165 19.571C19.6815 19.5798 19.6495 19.598 19.624 19.6235C19.5985 19.649 19.5793 19.681 19.5705 19.716ZM5.5705 5.71601L5.1945 7.22401C5.1445 7.42601 4.8565 7.42601 4.8065 7.22401L4.4295 5.71601C4.42067 5.68101 4.40253 5.64904 4.377 5.62351C4.35147 5.59799 4.31951 5.57984 4.2845 5.57101L2.7765 5.19401C2.5745 5.14401 2.5745 4.85601 2.7765 4.80601L4.2845 4.42901C4.31951 4.42018 4.35147 4.40204 4.377 4.37651C4.40253 4.35098 4.42067 4.31902 4.4295 4.28401L4.8065 2.77601C4.8565 2.57401 5.1445 2.57401 5.1945 2.77601L5.5715 4.28401C5.58033 4.31902 5.59847 4.35098 5.624 4.37651C5.64953 4.40204 5.68149 4.42018 5.7165 4.42901L7.2245 4.80601C7.4265 4.85601 7.4265 5.14401 7.2245 5.19401L5.7165 5.57101C5.68149 5.57984 5.64953 5.59799 5.624 5.62351C5.59847 5.64904 5.57933 5.68101 5.5705 5.71601Z" stroke="#5F24D6" stroke-width="1.5" stroke-miterlimit="10" stroke-linecap="round" stroke-linejoin="round"/>
</svg>
